<svg xmlns="http://www.w3.org/2000/svg" viewBox="0 0 173.1 157.27"><title>logo</title><rect width="173.1" height="157.27" style="fill:#222629"/><path d="M309.75,297.73A73,73,0,0,0,305,285a57.64,57.64,0,0,0-7.19-11.46,37,37,0,0,0-10.08-8.83A28.25,28.25,0,0,0,275,260.93a29.92,29.92,0,0,0-13.08,2.16,30.91,30.91,0,0,0-10.79,7.68,45.88,45.88,0,0,0-7.43,11.12,58.33,58.33,0,0,0-4.46,12.64l0,.07c-.11.49-.21,1.23-.28,1.85s-.13,1.31-.19,2c-.1,1.31-.16,2.63-.19,3.94a74.29,74.29,0,0,0,.22,7.9,56.26,56.26,0,0,0,3.35,15.35,36.36,36.36,0,0,0,8.42,13.09,32.9,32.9,0,0,0,13.18,8.18,31,31,0,0,0,15.5.81,19.06,19.06,0,0,0,3.7-1.21c1.21-.52,2.4-1.09,3.57-1.7a50.55,50.55,0,0,0,6.66-4.27A45.29,45.29,0,0,0,303.89,329a46.17,46.17,0,0,0,6-14.66,44.63,44.63,0,0,1-5.68,14.87A45.74,45.74,0,0,1,293.6,341.1a50.53,50.53,0,0,1-6.71,4.43c-1.18.64-2.38,1.24-3.62,1.78a20.34,20.34,0,0,1-3.85,1.32,31.81,31.81,0,0,1-16.06-.62,33.27,33.27,0,0,1-13.76-8.38,37.86,37.86,0,0,1-8.79-13.52,57.63,57.63,0,0,1-3.51-15.73,72.27,72.27,0,0,1-.26-8.06c0-1.35.11-2.69.22-4,.06-.67.12-1.34.21-2a20.94,20.94,0,0,1,.33-2.1v.07a59.48,59.48,0,0,1,4.64-13,47.11,47.11,0,0,1,7.71-11.42,32.21,32.21,0,0,1,11.28-7.94A31.11,31.11,0,0,1,275,259.86a29.14,29.14,0,0,1,13.1,4.09,36.87,36.87,0,0,1,10.17,9.18,58.74,58.74,0,0,1,7,11.73A68.53,68.53,0,0,1,309.75,297.73Z" transform="translate(-224.83 -226.49)" style="fill:#ec6730"/><path d="M386,228.59c-10.17,0-20.33.23-30.48.8s-20.24,1.58-30.27,3.07A210.55,210.55,0,0,0,295.62,239a156.2,156.2,0,0,0-28,11.31,88.76,88.76,0,0,0-23.94,17.93A62.88,62.88,0,0,0,235,280.33l-1.68,3.3L232,287.08a15.1,15.1,0,0,0-.58,1.76l-.51,1.78c-.16.6-.38,1.19-.5,1.79l-.36,1.82A53.89,53.89,0,0,0,229,309a62.52,62.52,0,0,0,2.83,14.57c.42,1.17.75,2.37,1.24,3.51l1.43,3.45,1.66,3.34c.55,1.12,1.23,2.16,1.84,3.25a72.78,72.78,0,0,0,9,11.92l-.23-.2c2.81,1.87,5.14,4.1,7.72,5.85l3.92,2.77c1.32.89,2.67,1.73,4,2.6a108.19,108.19,0,0,0,17,8.58,148.09,148.09,0,0,0,37.08,9.24c12.72,1.63,25.59,2,38.45,2.36s25.76.39,38.61,1.36c-12.87-.45-25.74-.23-38.62-.19a337.58,337.58,0,0,1-38.66-1.61A148,148,0,0,1,278.5,371,111.16,111.16,0,0,1,261,362.33c-1.37-.88-2.75-1.74-4.11-2.64l-4-2.78c-2.77-1.86-5.13-4.08-7.7-5.76l-.13-.09L245,351a75.72,75.72,0,0,1-9.41-12.35c-.64-1.13-1.35-2.22-1.93-3.38l-1.75-3.48-1.52-3.59c-.51-1.19-.87-2.44-1.31-3.67a64,64,0,0,1-3-15.27,57.23,57.23,0,0,1,1.12-15.56l.4-1.92c.13-.64.35-1.25.52-1.88l.56-1.88a15.45,15.45,0,0,1,.62-1.85l1.43-3.67,1.8-3.49a65,65,0,0,1,9.17-12.55,91.29,91.29,0,0,1,24.75-18.36,116.66,116.66,0,0,1,14-6.29l3.6-1.36,3.64-1.21c2.42-.84,4.88-1.54,7.34-2.25a213.48,213.48,0,0,1,30-6.13,296.5,296.5,0,0,1,30.47-2.36C365.66,228.14,375.84,228.23,386,228.59Z" transform="translate(-224.83 -226.49)" style="fill:#e94553"/><path d="M389.24,228.46" transform="translate(-224.83 -226.49)" style="fill:none"/><path d="M310.14,300.31a60.81,60.81,0,0,0-4.43-10.45,49.35,49.35,0,0,0-6.41-9.31,32.46,32.46,0,0,0-8.66-7.09A25.09,25.09,0,0,0,280,270.39,26,26,0,0,0,269.07,272a25.49,25.49,0,0,0-9.16,6.12,36.77,36.77,0,0,0-6.41,9.1,46.32,46.32,0,0,0-3.85,10.48l0,.07c-.09.38-.17,1-.23,1.52s-.12,1.08-.17,1.63c-.08,1.09-.14,2.18-.16,3.28a60.1,60.1,0,0,0,.22,6.57,43.52,43.52,0,0,0,3,12.7,29.44,29.44,0,0,0,7.38,10.62,27.76,27.76,0,0,0,11.23,6.36,26.78,26.78,0,0,0,12.92.39,31.13,31.13,0,0,0,6.1-2.36,43.59,43.59,0,0,0,5.67-3.36,37.61,37.61,0,0,0,9.36-9.26,35.21,35.21,0,0,0,5.34-12.07,34.08,34.08,0,0,1-5,12.3,38.18,38.18,0,0,1-9.25,9.64,44,44,0,0,1-5.72,3.51,32,32,0,0,1-6.26,2.54,27.7,27.7,0,0,1-25.26-6.72A30.68,30.68,0,0,1,251,324a44.68,44.68,0,0,1-3.18-13.11,58.33,58.33,0,0,1-.25-6.74c0-1.12.09-2.24.18-3.37q.08-.84.18-1.68a15.24,15.24,0,0,1,.3-1.77l0,.07a47.8,47.8,0,0,1,4-10.83,38.54,38.54,0,0,1,6.7-9.4,26.93,26.93,0,0,1,9.67-6.36,27.21,27.21,0,0,1,11.44-1.53,26,26,0,0,1,11,3.37,32.43,32.43,0,0,1,8.73,7.42,49.92,49.92,0,0,1,6.22,9.58A56.36,56.36,0,0,1,310.14,300.31Z" transform="translate(-224.83 -226.49)" style="fill:#ec6730"/><path d="M310.17,301.27a51.64,51.64,0,0,0-3.9-8.6,41.86,41.86,0,0,0-5.46-7.65,27.85,27.85,0,0,0-7.24-5.83,21,21,0,0,0-8.81-2.59,21.87,21.87,0,0,0-9.05,1.31,21,21,0,0,0-7.61,5,30.31,30.31,0,0,0-5.33,7.53,38.83,38.83,0,0,0-3.2,8.69v.07c-.07.28-.14.82-.19,1.24s-.1.9-.13,1.35c-.08.91-.12,1.82-.13,2.73a47.19,47.19,0,0,0,.18,5.45,35.22,35.22,0,0,0,2.51,10.54,24,24,0,0,0,15.5,14,22.06,22.06,0,0,0,10.71.22,35.07,35.07,0,0,0,9.84-4.7,31.54,31.54,0,0,0,7.9-7.56,28.81,28.81,0,0,0,4.54-10,27.64,27.64,0,0,1-4.21,10.23,31.85,31.85,0,0,1-7.81,7.94,35.2,35.2,0,0,1-10,5,22.91,22.91,0,0,1-21.18-5.36,25.5,25.5,0,0,1-6.56-9.2,36.71,36.71,0,0,1-2.69-10.94,46,46,0,0,1-.22-5.63c0-.93.07-1.87.15-2.81.05-.47.09-.94.15-1.41l.1-.71c.05-.25.06-.43.15-.78v.07a39.37,39.37,0,0,1,3.38-9,31.69,31.69,0,0,1,5.62-7.84,22.35,22.35,0,0,1,8.12-5.27,22.77,22.77,0,0,1,9.57-1.19,22.1,22.1,0,0,1,9.17,2.88,24.35,24.35,0,0,1,3.92,2.77,28.48,28.48,0,0,1,3.38,3.39,42.11,42.11,0,0,1,5.28,7.91A48.44,48.44,0,0,1,310.17,301.27Z" transform="translate(-224.83 -226.49)" style="fill:#cdbb35"/><path d="M310.19,302.14a41,41,0,0,0-7.93-13.05,24.37,24.37,0,0,0-5.91-4.72,17.66,17.66,0,0,0-7.13-2.17,17.37,17.37,0,0,0-7.33,1,16.74,16.74,0,0,0-6.16,4,28.59,28.59,0,0,0-6.87,13.17v.07c-.05.2-.11.65-.15,1s-.08.73-.11,1.1c0,.73-.09,1.47-.1,2.21a40.9,40.9,0,0,0,.15,4.43,29.08,29.08,0,0,0,2,8.56,19.25,19.25,0,0,0,12.58,11.28,17.44,17.44,0,0,0,8.67.06,30,30,0,0,0,8.05-3.77,25.58,25.58,0,0,0,6.54-6,22.58,22.58,0,0,0,3.78-8.11,21.61,21.61,0,0,1-3.46,8.34,25.85,25.85,0,0,1-6.44,6.42,30.88,30.88,0,0,1-8.19,4.07,18.31,18.31,0,0,1-9.24.17,18.67,18.67,0,0,1-8.17-4.34,20.73,20.73,0,0,1-5.4-7.53,30.4,30.4,0,0,1-2.21-9,37.17,37.17,0,0,1-.18-4.6c0-.77.06-1.54.12-2.3l.12-1.16.08-.58c0-.21.05-.35.13-.66v.07a32,32,0,0,1,2.76-7.4,25.89,25.89,0,0,1,4.59-6.42,17.92,17.92,0,0,1,6.67-4.29,18.35,18.35,0,0,1,15.33,1.55,23.86,23.86,0,0,1,6,5,36.15,36.15,0,0,1,4.38,6.41A39,39,0,0,1,310.19,302.14Z" transform="translate(-224.83 -226.49)" style="fill:#e8e092"/><path d="M311.13,303a34.55,34.55,0,0,0-6.63-10,20.75,20.75,0,0,0-4.68-3.64,16.94,16.94,0,0,0-2.7-1.17,14.74,14.74,0,0,0-2.87-.57,13,13,0,0,0-10.53,3.84,22,22,0,0,0-5.37,10.27l0,.07-.07.43-.06.53c0,.35-.06.71-.09,1.06,0,.72-.05,1.44-.05,2.15a29.05,29.05,0,0,0,.32,4.28,18.88,18.88,0,0,0,3,7.89,14.91,14.91,0,0,0,6.48,5.22,13.4,13.4,0,0,0,8.27.61h0a24.76,24.76,0,0,0,4.94-2,23.61,23.61,0,0,0,4.46-2.95,17.37,17.37,0,0,0,3.54-4,16.64,16.64,0,0,0,2.13-4.95,15.63,15.63,0,0,1-1.86,5.11,17.89,17.89,0,0,1-3.43,4.28,22.5,22.5,0,0,1-4.46,3.22,25.48,25.48,0,0,1-5.09,2.17h0a14.45,14.45,0,0,1-9-.36,16,16,0,0,1-7.13-5.6,20.2,20.2,0,0,1-3.29-8.43,30.83,30.83,0,0,1-.39-4.5c0-.75,0-1.5.07-2.25,0-.38.06-.76.11-1.13l.07-.57c0-.21.05-.34.13-.65l0,.06a25.88,25.88,0,0,1,2.19-5.85,20.7,20.7,0,0,1,3.67-5.07,14.06,14.06,0,0,1,5.34-3.35,14.39,14.39,0,0,1,6.24-.6,17,17,0,0,1,10.62,6A32.8,32.8,0,0,1,311.13,303Z" transform="translate(-224.83 -226.49)" style="fill:#fcf9cf"/><path d="M311.14,303.63a30.51,30.51,0,0,0-6.63-7.57,20,20,0,0,0-4.2-2.6,14.64,14.64,0,0,0-4.65-1.2,11.92,11.92,0,0,0-8.78,2.62,14.32,14.32,0,0,0-3,3.6,16.7,16.7,0,0,0-1.84,4.33l0,.13a.14.14,0,0,0,0-.06V303l0,.22,0,.46c0,.31-.06.63-.08.95,0,.64,0,1.28,0,1.92a17.06,17.06,0,0,0,.53,3.78,11.69,11.69,0,0,0,3.81,6.22,14.93,14.93,0,0,0,7,2.79,29.77,29.77,0,0,0,7.89.1l-.08,0a15,15,0,0,0,3.34-1.55,15.74,15.74,0,0,0,3-2.3,15.18,15.18,0,0,0,2.36-3,16.4,16.4,0,0,0,1.58-3.52,14.77,14.77,0,0,1-3.29,7.1,17.26,17.26,0,0,1-2.94,2.72,15.66,15.66,0,0,1-3.58,2h-.09a28.64,28.64,0,0,1-8.42.38,16.25,16.25,0,0,1-8.13-3A13.54,13.54,0,0,1,280,311a20.44,20.44,0,0,1-.66-4.31,17.3,17.3,0,0,1,0-2.16c0-.36,0-.73.1-1.09l.07-.55.05-.29,0-.17,0-.09.06-.17,0,.12a18.7,18.7,0,0,1,2.19-5,15.46,15.46,0,0,1,3.63-4.11,13.09,13.09,0,0,1,5-2.42,15.05,15.05,0,0,1,5.43-.23,17.08,17.08,0,0,1,9.36,4.76A26.78,26.78,0,0,1,311.14,303.63Z" transform="translate(-224.83 -226.49)" style="fill:#e9e9ea"/><path d="M311.16,304.27a10.93,10.93,0,0,0-4.47-6,9,9,0,0,0-3.43-1.25,12.59,12.59,0,0,0-1.85-.14c-.64,0-1.28,0-1.91,0a17.22,17.22,0,0,0-7.17,1.69,8.78,8.78,0,0,0-2.69,2.17,7,7,0,0,0-.9,1.42,7.21,7.21,0,0,0-.3.77,4.62,4.62,0,0,0-.17.7l-.07.3a.49.49,0,0,1,0-.07h0v.06l0,.16-.05.34c0,.23,0,.47-.05.71q0,.72,0,1.44a11.25,11.25,0,0,0,.49,2.79,7.77,7.77,0,0,0,3.19,4.3,14.22,14.22,0,0,0,5.55,1.72,30.33,30.33,0,0,0,6.1.09l-.09,0a11.31,11.31,0,0,0,2.49-1,12.29,12.29,0,0,0,2.27-1.58,10.88,10.88,0,0,0,1.84-2.1,11.08,11.08,0,0,0,1.28-2.55,10.43,10.43,0,0,1-2.52,5.25,12.81,12.81,0,0,1-2.24,2,12,12,0,0,1-2.71,1.43h-.09a26.81,26.81,0,0,1-6.51.4,15,15,0,0,1-6.51-1.71,9.42,9.42,0,0,1-2.72-2.34,10.74,10.74,0,0,1-1.65-3.14,13.88,13.88,0,0,1-.65-3.41,14.09,14.09,0,0,1,0-1.72c0-.28,0-.57.08-.86l.07-.44,0-.24,0-.13,0-.08.05-.17-.07.3a7.73,7.73,0,0,1,.72-2.28,9.71,9.71,0,0,1,1.24-1.9,10.31,10.31,0,0,1,3.5-2.68,17.87,17.87,0,0,1,8.19-1.55c.68,0,1.36.05,2,.1a11.44,11.44,0,0,1,2.08.35,10.33,10.33,0,0,1,3.8,1.84A10.5,10.5,0,0,1,311.16,304.27Z" transform="translate(-224.83 -226.49)" style="fill:#e9e9ea"/><path d="M311.17,304.65a9.86,9.86,0,0,0-2.91-4.69,7,7,0,0,0-2.34-1.3,8.63,8.63,0,0,0-2.66-.31,17.11,17.11,0,0,0-5.42.71,6.92,6.92,0,0,0-4,3,7.81,7.81,0,0,0-.75,5,10.38,10.38,0,0,0,.72,2.56,6.42,6.42,0,0,0,1.35,2.12,8.61,8.61,0,0,0,4.88,1.7,27.21,27.21,0,0,0,5.56-.12h-.05a9.52,9.52,0,0,0,1.85-.84,8.44,8.44,0,0,0,1.65-1.27,8.7,8.7,0,0,0,2.18-3.59,8.86,8.86,0,0,1-.64,2.07,8,8,0,0,1-1.18,1.85,9.33,9.33,0,0,1-1.62,1.52,8.26,8.26,0,0,1-2,1.1h-.05a24,24,0,0,1-5.8.47,13.74,13.74,0,0,1-3-.43,7,7,0,0,1-2.79-1.42,7.17,7.17,0,0,1-1.78-2.59,11.74,11.74,0,0,1-.86-2.91,9,9,0,0,1,.95-6,7.5,7.5,0,0,1,2.15-2.3,9.34,9.34,0,0,1,2.78-1.28,16.74,16.74,0,0,1,5.87-.51,8.72,8.72,0,0,1,2.94.57,6.92,6.92,0,0,1,2.48,1.67A9.51,9.51,0,0,1,311.17,304.65Z" transform="translate(-224.83 -226.49)" style="fill:#e9e9ea"/><path d="M388.31,285.66c-3.26-1.47-6.5-2.94-9.88-4.08a77.34,77.34,0,0,0-10.21-3c-1.73-.42-3.48-.66-5.22-1-.87-.15-1.76-.21-2.63-.32s-1.75-.21-2.64-.24l-2.64-.15h-2.64a25.9,25.9,0,0,0-2.64.11c-.88.07-1.76.09-2.63.21a55,55,0,0,0-10.31,2.18,58.88,58.88,0,0,0-9.68,4.2,33.13,33.13,0,0,0-8.17,6.61,25.87,25.87,0,0,0-5.38,9.08,24.84,24.84,0,0,1,4.82-9.56,33.8,33.8,0,0,1,8.14-7.12,53.07,53.07,0,0,1,9.82-4.56,50.72,50.72,0,0,1,5.24-1.42,53.8,53.8,0,0,1,5.35-.9,60.61,60.61,0,0,1,21.47,1.72,76.52,76.52,0,0,1,10.22,3.4l2.46,1.07c.81.37,1.61.78,2.42,1.17C385.2,283.89,386.74,284.81,388.31,285.66Z" transform="translate(-224.83 -226.49)" style="fill:#e8e092"/><path d="M391.89,287.55" transform="translate(-224.83 -226.49)" style="fill:none"/><path d="M391.55,325.9" transform="translate(-224.83 -226.49)" style="fill:none"/><path d="M313.88,310.53a37.34,37.34,0,0,0,12.5,17.31,39.12,39.12,0,0,0,19.69,7.88,68.82,68.82,0,0,0,21.49-1.27,83.82,83.82,0,0,0,10.51-2.77,91.62,91.62,0,0,0,10.15-4,74.67,74.67,0,0,1-9.91,4.67,83.16,83.16,0,0,1-10.5,3.21,63.6,63.6,0,0,1-21.92,1.63,41.19,41.19,0,0,1-10.74-2.75,37.72,37.72,0,0,1-13.48-9.55,33.73,33.73,0,0,1-7.79-14.38Z" transform="translate(-224.83 -226.49)" style="fill:#e8e092"/><path d="M313.64,298.2" transform="translate(-224.83 -226.49)" style="fill:none"/><path d="M390.24,274.1" transform="translate(-224.83 -226.49)" style="fill:none"/><path d="M393.62,274.79" transform="translate(-224.83 -226.49)" style="fill:none"/><path d="M394.53,339" transform="translate(-224.83 -226.49)" style="fill:none"/><path d="M390.5,339.86" transform="translate(-224.83 -226.49)" style="fill:none"/><path d="M314,311.12a70.25,70.25,0,0,0,2.84,7.8,48.44,48.44,0,0,0,3.9,7.19,44.83,44.83,0,0,0,5.09,6.4A54.28,54.28,0,0,0,332,338a28.56,28.56,0,0,1-7-4.64,32.92,32.92,0,0,1-5.53-6.42A34.08,34.08,0,0,1,314,311.12Z" transform="translate(-224.83 -226.49)" style="fill:#cdbb35"/><path d="M387.51,265.17c-3.59-.22-7.18-.51-10.77-.5s-7.17,0-10.73.29c-1.78.18-3.57.31-5.33.57-.88.13-1.77.23-2.65.38l-2.63.49c-.88.15-1.74.36-2.61.57s-1.73.4-2.59.63c-1.7.54-3.43,1-5.08,1.63l-2.5.92-2.44,1.08-1.21.54-1.18.63-2.36,1.24a61.19,61.19,0,0,0-8.71,6.12,44.9,44.9,0,0,0-7.45,7.64,47.4,47.4,0,0,0-5.63,9.13,42.52,42.52,0,0,1,5-9.57,45.36,45.36,0,0,1,7.28-8.07,55.11,55.11,0,0,1,8.76-6.48l2.4-1.3,1.2-.65,1.25-.56,2.49-1.12,2.55-1a72.07,72.07,0,0,1,21.33-4c3.61-.12,7.23-.11,10.83.13S384,264.61,387.51,265.17Z" transform="translate(-224.83 -226.49)" style="fill:#cdbb35"/><path d="M391.58,265.72" transform="translate(-224.83 -226.49)" style="fill:none"/><path d="M396,346.43" transform="translate(-224.83 -226.49)" style="fill:none"/><path d="M314,311.9a44.41,44.41,0,0,0,11.87,20,56.26,56.26,0,0,0,19.89,12,83.07,83.07,0,0,0,22.95,4.68,89,89,0,0,0,11.78,0,87.85,87.85,0,0,0,11.73-1.47,75.51,75.51,0,0,1-11.67,2.2,87.56,87.56,0,0,1-11.9.41,76.42,76.42,0,0,1-23.4-4.43A53.91,53.91,0,0,1,325,332.71a43.06,43.06,0,0,1-7.07-9.63A42,42,0,0,1,314,311.9Z" transform="translate(-224.83 -226.49)" style="fill:#cdbb35"/><path d="M387,256.94c-3.7.05-7.4.16-11.08.48s-7.35.69-11,1.3a95.44,95.44,0,0,0-21.19,5.88,58.6,58.6,0,0,0-18.41,11.71,47,47,0,0,0-11.72,18.44,43.7,43.7,0,0,1,4.17-10.32,45,45,0,0,1,6.74-8.94,55.45,55.45,0,0,1,18.64-12.28,85.74,85.74,0,0,1,21.6-5.62q5.54-.72,11.11-.9C379.62,256.61,383.33,256.65,387,256.94Z" transform="translate(-224.83 -226.49)" style="fill:#ec6730"/><path d="M390.4,257" transform="translate(-224.83 -226.49)" style="fill:none"/><path d="M385.23,249.79a105.35,105.35,0,0,0-11.24.74,96,96,0,0,0-11.06,1.87,88.59,88.59,0,0,0-21,7.55,61.5,61.5,0,0,0-17.65,13.43,47.62,47.62,0,0,0-6.41,9.13,49.76,49.76,0,0,0-4.22,10.39,45.11,45.11,0,0,1,3.57-10.73,47.64,47.64,0,0,1,6.18-9.54,57.88,57.88,0,0,1,17.84-14,79.92,79.92,0,0,1,21.46-7.34,94.73,94.73,0,0,1,11.24-1.48A87,87,0,0,1,385.23,249.79Z" transform="translate(-224.83 -226.49)" style="fill:#ec6730"/><path d="M388.43,249.75" transform="translate(-224.83 -226.49)" style="fill:none"/><path d="M313.81,309.66a26.93,26.93,0,0,0,5,8.78,29.25,29.25,0,0,0,7.66,6.49,38.5,38.5,0,0,0,19.33,4.72,43.76,43.76,0,0,0,19.42-4.31,32,32,0,0,0,8-5.93,25.8,25.8,0,0,0,5.45-8.15l0-.1a1.42,1.42,0,0,0,.06-.21l.08-.32c.06-.2.09-.44.14-.66.09-.44.14-.91.2-1.36a25.74,25.74,0,0,0,.12-2.78,20.72,20.72,0,0,0-.77-5.48,19.39,19.39,0,0,0-5.74-9.31,31.61,31.61,0,0,0-9.56-5.76,44.79,44.79,0,0,0-11-2.73,51.19,51.19,0,0,0-11.34-.16,20.91,20.91,0,0,0-2.78.41c-.92.22-1.83.47-2.74.75a48.91,48.91,0,0,0-5.34,2,38.52,38.52,0,0,0-9.7,5.9,23.17,23.17,0,0,0-6.68,9.14,22.54,22.54,0,0,1,6.4-9.45,38.66,38.66,0,0,1,9.67-6.29,49.74,49.74,0,0,1,5.39-2.11c.92-.3,1.84-.58,2.78-.82a20.77,20.77,0,0,1,2.89-.49,52.84,52.84,0,0,1,11.59-.06,43.73,43.73,0,0,1,11.3,2.7,33.2,33.2,0,0,1,10,6c.36.34.73.67,1.08,1l1,1.12a19.61,19.61,0,0,1,1.76,2.39,20.89,20.89,0,0,1,2.39,5.43,22.67,22.67,0,0,1,.86,5.85,26.55,26.55,0,0,1-.14,3c-.08.49-.13,1-.23,1.48-.05.24-.09.48-.16.74l-.1.37a4.72,4.72,0,0,1-.17.48l.05-.1a27.12,27.12,0,0,1-5.84,8.65,33.49,33.49,0,0,1-8.34,6.14,43.26,43.26,0,0,1-20,4.22,39,39,0,0,1-19.69-5.23,29.36,29.36,0,0,1-7.59-6.85A26.06,26.06,0,0,1,313.81,309.66Z" transform="translate(-224.83 -226.49)" style="fill:#e8e092"/><path d="M312.75,308.83a21.84,21.84,0,0,0,8.31,11.52,23.27,23.27,0,0,0,13.51,3.93c1.2,0,2.39-.11,3.58-.21l1.76-.29a11.46,11.46,0,0,0,1.74-.37l1.71-.46c.56-.19,1.11-.43,1.66-.64l.82-.32.79-.41c.51-.29,1.06-.52,1.54-.85a21,21,0,0,0,5.29-4.64,20.25,20.25,0,0,0,3.48-6l0-.09.08-.36c0-.15.06-.31.09-.47.06-.32.09-.65.13-1a19,19,0,0,0,.1-2,21,21,0,0,0-.38-4,16.28,16.28,0,0,0-3.37-7.1,20,20,0,0,0-6.36-4.8,27.14,27.14,0,0,0-7.7-2.39,31.1,31.1,0,0,0-8.12-.23,13.64,13.64,0,0,0-2,.32c-.65.18-1.3.38-1.95.61a30.25,30.25,0,0,0-3.76,1.59,25.93,25.93,0,0,0-6.7,4.67,18.23,18.23,0,0,0-4.41,6.89,17.42,17.42,0,0,1,4.11-7.18,26,26,0,0,1,6.64-5.06,32,32,0,0,1,3.82-1.74c.66-.25,1.32-.47,2-.67a13.31,13.31,0,0,1,2.11-.41,32,32,0,0,1,8.41,0,24.2,24.2,0,0,1,14.95,7.48,18,18,0,0,1,3.75,7.7,22.75,22.75,0,0,1,.44,4.27c0,.72-.05,1.43-.12,2.15-.05.35-.09.71-.16,1.07,0,.18-.06.35-.1.54l-.07.28a2.25,2.25,0,0,1-.12.37l0-.09a21.5,21.5,0,0,1-3.8,6.51,22.26,22.26,0,0,1-5.67,4.88,26.47,26.47,0,0,1-14.31,3.51c-1.23-.12-2.47-.12-3.69-.33a23.45,23.45,0,0,1-3.62-.83,20.19,20.19,0,0,1-6.6-3.31,20.64,20.64,0,0,1-5-5.39A21.44,21.44,0,0,1,312.75,308.83Z" transform="translate(-224.83 -226.49)" style="fill:#e8e092"/><path d="M312.7,308.17a20,20,0,0,0,4.32,8.05,11.79,11.79,0,0,0,3.57,2.54l1,.37a7.73,7.73,0,0,0,1.06.24,10.94,10.94,0,0,0,2.14.22,6.65,6.65,0,0,0,1.09-.07,9.76,9.76,0,0,0,1.07-.13,10.91,10.91,0,0,0,2-.61,9.81,9.81,0,0,0,3.53-2.3,16.48,16.48,0,0,0,4.16-7.47l0-.13h0l0-.14,0-.29c0-.21.05-.41.06-.63,0-.42.06-.84.06-1.27a21.83,21.83,0,0,0-.08-2.56,16,16,0,0,0-1.24-4.87,11.61,11.61,0,0,0-7.18-6.38,11.79,11.79,0,0,0-5-.46,5.32,5.32,0,0,0-1.16.22,10.81,10.81,0,0,0-1.18.48,15.32,15.32,0,0,0-2.26,1.29,15.93,15.93,0,0,0-6.18,8.43,15.19,15.19,0,0,1,5.4-9.46,16.13,16.13,0,0,1,2.34-1.6c.42-.24.85-.45,1.29-.65a7.09,7.09,0,0,1,1.48-.42,13.69,13.69,0,0,1,5.8.21,13.57,13.57,0,0,1,8.82,7.34,18.26,18.26,0,0,1,1.51,5.61,23.12,23.12,0,0,1,.12,2.88c0,.48,0,.95-.09,1.44,0,.24-.05.48-.08.73l-.06.37,0,.2-.08.32,0-.12a19.06,19.06,0,0,1-1.89,4.65,15.78,15.78,0,0,1-3.11,3.95,12.47,12.47,0,0,1-9.34,3.3,11.79,11.79,0,0,1-4.83-1.3,12.34,12.34,0,0,1-3.77-3.18A18.32,18.32,0,0,1,312.7,308.17Z" transform="translate(-224.83 -226.49)" style="fill:#e9e9ea"/><path d="M312.69,307.53a14,14,0,0,0,3.48,5.77,8.38,8.38,0,0,0,2.71,1.69l.75.24c.25.06.52.09.77.14a9.15,9.15,0,0,0,1.57.12,13.46,13.46,0,0,0,1.57-.16,8.23,8.23,0,0,0,1.49-.43,7.21,7.21,0,0,0,2.59-1.58,10.56,10.56,0,0,0,1.92-2.42,12.08,12.08,0,0,0,1.21-2.85l0-.13a.05.05,0,0,0,0,0v-.1l0-.2c0-.14,0-.29.05-.44,0-.31,0-.61,0-.92a14.15,14.15,0,0,0-.07-1.84,10.48,10.48,0,0,0-1-3.44,8.57,8.57,0,0,0-5.35-4.35,9.38,9.38,0,0,0-3.62-.34,5.38,5.38,0,0,0-.83.13,7,7,0,0,0-.87.32,10,10,0,0,0-1.69.87,11.39,11.39,0,0,0-4.86,5.94,10.8,10.8,0,0,1,4.11-7,13,13,0,0,1,1.78-1.17,9.9,9.9,0,0,1,1-.48,5.5,5.5,0,0,1,1.13-.31,11.28,11.28,0,0,1,4.37.06,10.48,10.48,0,0,1,7,5.23,13,13,0,0,1,1.27,4.25,14.56,14.56,0,0,1,.12,2.18c0,.37,0,.73-.07,1.1,0,.18,0,.36-.07.55l-.05.3,0,.15-.08.29,0-.13a13.81,13.81,0,0,1-1.54,3.52,11.36,11.36,0,0,1-2.5,2.91,10,10,0,0,1-7.18,2.31,9.54,9.54,0,0,1-3.67-1,9.09,9.09,0,0,1-2.92-2.32A12.45,12.45,0,0,1,312.69,307.53Z" transform="translate(-224.83 -226.49)" style="fill:#e9e9ea"/><path d="M312.67,307.15a10.89,10.89,0,0,0,2.4,4.44,6.53,6.53,0,0,0,2,1.39,5.92,5.92,0,0,0,2.32.45,6.15,6.15,0,0,0,2.3-.44,5.45,5.45,0,0,0,1.94-1.27,9.11,9.11,0,0,0,2.29-4.11l0-.07h0v-.07l0-.16c0-.11,0-.23,0-.35s0-.46,0-.7a13.29,13.29,0,0,0,0-1.41,9,9,0,0,0-.68-2.68,6.43,6.43,0,0,0-4-3.51,6.5,6.5,0,0,0-2.74-.26,3.36,3.36,0,0,0-.63.12,6.11,6.11,0,0,0-.66.27,8.09,8.09,0,0,0-1.24.71,8.6,8.6,0,0,0-3.43,4.64,8.47,8.47,0,0,1,3-5.25,9.83,9.83,0,0,1,1.29-.89q.34-.19.72-.36a3.51,3.51,0,0,1,.82-.23,7.56,7.56,0,0,1,3.21.11,7.5,7.5,0,0,1,4.91,4.07,10,10,0,0,1,.83,3.11,10.65,10.65,0,0,1,.07,1.6,7,7,0,0,1-.05.79c0,.14,0,.27,0,.41l0,.21,0,.11-.05.18,0-.07a9.8,9.8,0,0,1-2.78,4.77,6.93,6.93,0,0,1-5.18,1.83,6.32,6.32,0,0,1-4.77-2.5A10.16,10.16,0,0,1,312.67,307.15Z" transform="translate(-224.83 -226.49)" style="fill:#e9e9ea"/><path d="M314,316.31a43.94,43.94,0,0,0,10.73,22.58,53.21,53.21,0,0,0,21,13.63,87.41,87.41,0,0,0,24.7,5.25,103.63,103.63,0,0,0,12.71.17,106.18,106.18,0,0,0,12.68-1.29,91.1,91.1,0,0,1-12.64,2,101.54,101.54,0,0,1-12.82.24,84.34,84.34,0,0,1-25.15-5,62.16,62.16,0,0,1-11.51-5.82,44.91,44.91,0,0,1-9.76-8.43,41.5,41.5,0,0,1-6.8-10.91A43.65,43.65,0,0,1,314,316.31Z" transform="translate(-224.83 -226.49)" style="fill:#ec6730"/><path d="M314,313.73a52.2,52.2,0,0,0,2.93,13.39,50.47,50.47,0,0,0,6.26,12.12,61.16,61.16,0,0,0,20.08,18.18,47.35,47.35,0,0,0,12.5,5.26,77.68,77.68,0,0,0,13.5,2.17A106.59,106.59,0,0,0,383,365c4.59-.18,9.17-.63,13.75-1.12-4.54.81-9.11,1.41-13.7,1.83a105,105,0,0,1-13.86.25,69.56,69.56,0,0,1-13.75-2,48.55,48.55,0,0,1-12.9-5.28,61.3,61.3,0,0,1-11.22-8.25,56.66,56.66,0,0,1-9.05-10.56,50.66,50.66,0,0,1-6-12.52A49,49,0,0,1,314,313.73Z" transform="translate(-224.83 -226.49)" style="fill:#ec6730"/><path d="M344.94,305.72A33.75,33.75,0,1,1,311.2,272,33.75,33.75,0,0,1,344.94,305.72Z" transform="translate(-224.83 -226.49)" style="fill:#e94553"/><path d="M343.05,305.84a31.65,31.65,0,1,1-31.65-31.62A31.64,31.64,0,0,1,343.05,305.84Z" transform="translate(-224.83 -226.49)" style="fill:#cbe5f2"/><path d="M342.94,306a31.62,31.62,0,1,1-31.62-31.61A31.62,31.62,0,0,1,342.94,306Zm-25.41-22.41h.23l.13-.07.28.09.06-.15-.3-.19-.15.12-.16.07-.22,0-.26,0,.05-.21-.17-.13-.26-.09h-.16v.15l-.06.11.16.14,0,.19.18,0,0,.11.2.08-.09.1,0,.2h0l.22,0,.34,0,.27-.07V284l.15.14h.24l.26-.05.28-.13-.27-.06-.28-.1-.29-.1-.21,0-.12-.11Zm11.65,5.07.2,0v-.14l-.14-.09-.11,0,0,.14m-.07-.35.23.09,0-.11-.06-.17h-.09l-.1-.15-.18-.05.08.19.08.19Zm.39.23h.12l0-.13-.07-.1,0,.09,0,.15m-1.21-2.12.2,0-.1-.14-.2-.08-.12-.13.09.18.13.13Zm6.82,9.07.07-.11.11,0-.11-.24-.13.06.06.32m7.6,11.68,0-.06v-.2l0,0v.23m-30.84,30.42h-.36m-3.3-32.27.24.11.19.11.08-.22-.22,0-.29,0m3.51,32.22h-.07l-.07,0h.14Zm6.69-14,.31,0,.13-.14v-.22l-.36.09.1,0v.18l-.17.11Zm-3.94-.61.18.11m-7.47-4.8.06.1-.06.06.12,0,.17,0-.07-.15-.11-.09-.11.09m11.06,2.38.05.16.08-.14.13,0-.1-.11,0,.13Zm.39.62.18.14M312,318.85h.25l.09-.21-.09.13-.17,0-.08.12M309.93,316l-.06-.11h-.15l-.24.08-.14-.12m.83.42.1-.26-.23-.22m.7,1.17v-.24l-.29-.2m.53.44.18.26m0,.26.24.41m.32.34.19-.19-.26-.13m.62.2.2,0m.65.31-.32-.1-.19.12m-4.72-1.6.26,0m2.71-5.43.19-.09.07-.18m.61-2.74.28-.05.28-.06.27-.14-.14-.09-.21.1-.2.05-.25.05,0,.14m-2-8.66.18,0-.22.21h.18l.11-.13,0,.22.1-.31-.07-.13-.26.16Zm-.79,1.72.18.11.22.1-.07-.23-.13-.06Zm1.47-10.75-.07.15,0,.22.21.09.17-.07.25.06,0-.14,0-.2-.17-.11-.21,0-.2,0m-1-3.14.06.15v.18l-.11.15,0,.2.08.19.3.06.18-.14.14-.2.16-.09,0-.17-.16-.08.1-.18,0-.12-.19-.07-.05-.15v-.2l-.12,0-.1.19-.17.12-.08.19Zm-.42-.07.13.11v-.21l-.12.1m-.23,1,.16.14.21.11.13-.08,0-.1-.27-.08h-.25m-.92-.32-.1.21.12.1,0-.17.07-.14h-.12m-.58,1.11.14.05v-.18l-.15.13m0-1.72.17.07.05.1.14.05.11,0-.1-.16-.23-.08-.14.06m-.27,0,0,.11.09,0,.09-.14H307m.11.16-.08.14.12.12.23,0,.16-.17-.11-.05h-.16Zm-1.34.46.07.11.14-.08.17-.12H306l-.18.08m-10.22-6.91-.36.21m-1.52,1.38-.13.11v.08l.13-.13v-.06m-1.53,2.34.06,0,.1-.12Zm0,.26v.12l.1-.13Zm0,.42v.1h.1m-.05,1.11.17.11.06,0,.11-.05,0-.1Zm.23.23.06.11.09.09.13-.06v-.17l-.15.07Zm4.94-2.66-.17.05,0,.16-.19.21.1.14.07-.19.13-.15Zm-1.79,1.34-.13.17-.05.14.08.1.12,0,0-.13,0-.11Zm-1.13,3.21-.18.29.15.07.17,0,.13.12.13-.15v-.12l.18.11.08-.15-.2-.06-.19,0Zm26.36-1.47-.09-.21m-2.78-.16.18.13.05-.09ZM338.06,289l-.08-.12-.05-.07,0,0,0,.05,0,.09-.06-.07-.07-.09-.05,0h0l-.05,0m-3.28-4.38.07.08-.19-.2-.16-.17-.21-.21,0,0,0,0-.15-.16m-10.82-7-.06-.05,0,0-.21-.05h0l-.23-.09-.18-.06-.31-.11-.25-.11-.19-.06-.19-.08-.27-.09-.23-.07.17.06.18.06.15.06.19.06.15.06.23.09.29.11.15.07.25.09.22.07.2.06m-26.08,1.28-.06,0-.08.07-.2.11-.12.08-.09.08.15-.1.06,0,.12-.06,0,0,.11-.09.18-.1.22-.12.26-.12.16-.07.21-.08.2-.09.08-.05-.2.07h-.12l.05,0-.1,0Zm-.35.27,0,0,0,.05m-.2.13-.08.08-.1.11-.07.09.07-.08.14-.08,0-.07Zm-.39.39-.07.06,0,.09.08-.08Zm-.27.35v.06m.24.38-.09,0-.08.12,0,0,.09,0,0-.06Zm5.81-2.82-.15,0,0,.08.2-.06Zm-4.35,4v.17l.13,0v-.1Zm2.77-3.44h-.18l-.08,0h-.13l-.18.05h-.24l-.15,0h-.21l0,0-.11,0-.18,0h-.05l-.14,0,0,0-.23.07h0l0,.05-.15.07-.2.09.12,0,.15-.06.1,0,.16-.06.13,0h.1l0,0h.06l0,.05-.14.08-.23.1.15,0,.21,0,.2-.05.18,0,.18,0,.2,0h.25l.18,0h.16l.15,0,.09-.06-.18,0v0l.07-.07Zm1.62,5.6-.14-.15-.15,0,0,.14m0,0-.09.11.06.2.22-.11.07-.21Zm4.72-3.58-.21,0-.27.12.11.06H306l.13-.1Zm.28.12-.12-.05-.06.05.08.05.1-.05m-.27.66-.26,0-.33.08-.13.09.11.1.24-.09.22-.12Zm14.76.48-.21-.13-.18,0v.16l.21.05.19-.06m-5.44.8-.11-.09h-.22l-.11-.12h-.11l-.16.1-.07-.08-.15,0-.11.13h.2l.13,0,.22.09.16-.06.11.1h.22m-.18.21-.05-.13-.2-.07,0,.08-.2,0-.14.1.24,0,.16-.08.09.08.13,0m.3,0-.12-.09,0,.09h.16m.3.51V282l-.06-.07.11,0v-.1l-.12-.07-.12,0-.19,0v.06l.22.09-.09,0,0,.07.27.09m9.18,8.11.09-.06-.11-.21-.06.17.08.1m1.5-.47-.2-.12.07.11m.34.63.15,0m.15,1.3-.09-.3-.2-.21.06.27.15.11.08.13m.79-6.1.1,0-.11-.13-.12-.13,0,.15.15.14m-.27-.19h.07l-.07-.13-.1.06.1.06m8.66,5.06.09-.06.14.15.07,0,0-.13h.1l-.13-.19.08,0-.17-.08-.13-.07v-.13l-.15,0-.05.08,0,.1.08.21.12.16Zm.7,0,0-.16v-.13l0-.06-.06-.22-.07-.22-.09-.1.09.2-.08-.07.06.19v.1l.06.18-.05,0,0,.16.13.15Zm-.82-2.68.07,0,0-.16-.11-.18-.09-.11-.06-.12h0l-.21-.28.13.22.1.17.09.15.08.11Zm.16,1.1.09.05-.1-.15-.13-.15.14.25m-.82-.32-.08-.06,0,.09m.25.19.08.06m-6.5,15.34.19,0m.84-.25.18-.16m4.57,2.08.13.08,0-.15,0-.23,0,.18Zm.33-.16.09.08.06-.14-.06-.1-.1.05Zm.36-.49.06-.2-.13-.25.05-.14,0-.13,0,.11,0,.16V305l.06.11M282,299.35h0m0,.08,0,.12v.09l.07-.09v-.1l-.05,0m0,.73-.05.16,0,.16.06-.27,0-.05m0,.55,0,.15m0,.12,0,.14,0,.09,0,.07,0,0,0-.2,0,0V301m52.84-13.11,0-.17-.07-.19,0-.17-.08,0-.08-.16-.05.08h0l.06.19.1.23.12.16.16.23-.05-.17Zm-.39,4.78,0-.2-.12-.17.19.16.12.08.12.15.18.21h-.18l-.12-.08-.15-.16m.55.65.12.11.16.06.18.17.17.19h.13l-.1-.22,0-.12-.14-.19-.14-.15-.15-.14-.15-.11H335l.1.25,0,.13-.05,0m1.2-.28.14,0v-.1l.12-.11,0-.12h.11l0-.19-.11-.15-.11-.05-.17-.21-.14-.23.06.26,0,.25v.18l-.06.08v.15l.08.21m-33.9,34.37,0,.19.18.13-.18.06.18.1.18-.09-.14-.19-.18-.2Zm7.2-7.18h.18l.17.18.22,0,.17-.08.18.05h.17l-.08-.17-.22-.08-.26-.05-.26,0-.22.08-.05.08Zm-3.27-2.11.34,0,.09-.16.3,0,.18-.11.17-.11.25.07.34.07-.26.07.16.14.26.06.38,0,.16.14.22.05.25.1.26,0,.08.09,0,.21.25.18h.39l.08.17-.17.12-.14.12.35,0,.26,0h.26l.26.05h.26l.17-.09.26,0,0-.08h-.13l-.17-.17-.26,0-.18,0,.05-.21-.21,0-.26,0-.26-.18-.21-.09-.21-.13-.25-.14-.25-.09h-.26l-.17-.19-.2-.09-.21-.1-.26,0-.24-.11-.26,0-.25.07h-.26l-.25,0-.26.1-.18.11V318l-.26,0Zm5.28,2.06.36.16.08-.08h.26l.22,0,.22-.05.27,0,.22.24.17-.21v-.13l.25-.09v.12l.26-.06.3-.1.26,0,.18.16.17-.23-.23-.19-.43,0,.21-.14-.31,0-.09-.17-.3,0-.26,0H313l-.17.09-.3-.12h-.31l-.17.13h.26l.13.16v.16l.22.21-.22.13h-.26l-.22-.08-.26,0-.18.12Zm3.84,0,.22,0,.22-.07.21,0,.12-.14-.17-.1-.3,0-.31,0Zm-5.72-3.47,0,.18-.13.12.25.22.12.27.09-.17-.12-.18v-.17l-.12-.27ZM315.06,303l.26.11.1.12.22.06h.25l.2,0-.15-.17-.19-.06-.21-.06h-.24l-.24,0Zm.3,1.72.14.12.24.11.34.09,0-.18.16-.17-.27.09-.22,0-.23-.06-.05-.18-.08.15m-6.28-8.27.22,0,.26-.2v0l-.16,0-.2.07Zm.93,0-.05.31.1.14.13-.22,0-.21Zm7,7.3.11.22.24-.15h.31l.27-.06.26-.07h.25l0,.18-.14.17h.22l.11-.31.13-.09H319l0,.29.14-.18.06.22.21-.06,0-.28,0-.28-.16.09v-.29l-.1.08-.05.26-.11-.07v-.19l.18-.34-.25.11-.13-.15.1-.27-.19,0-.22.06-.21.1-.25-.13.1-.17-.21,0-.21.24,0-.29.07-.21.07-.3v-.28l-.16,0-.19.18-.06.21,0,.24-.08.3v.33l-.11.3-.07.26h.13l-.14.22-.12.16Zm-8.69-8.18.32,0,0,.26h.24l.19-.2.17-.15.18,0,.18.14.19.19.24-.2-.23-.14-.09-.23-.16-.19-.24-.2-.2-.23,0-.27-.26.18-.09.21-.1.29v.31l-.28.18m2.49-1.85.08.25.25,0,.14-.13,0-.21-.11-.17H311l-.16.3m-2.1-2.28.12.23.07.27.11.22.26.21.26,0,.36.12.2,0,.26.23.17-.08.19-.24.1.21.31.26-.07.33.23-.16.15.25.26.16.08.26.08.21-.14.17-.15.22-.19.17.21.26-.22.18h-.31l-.34-.1-.05.17-.13,0-.09.21.12.22H311l.18-.12.26,0,.24.13.23.08.2.12V296l.22.17.2.08.26.07.09.12.25.11.25.07.26,0,0-.22-.22-.16-.23-.19-.21-.16-.12-.21.3.11.25.15.29.14.31,0v-.35l-.22-.19-.06-.26-.18-.15-.28-.19h0l-.16-.23v-.35l.4.21.17.29.29.14,0-.27.24-.13v-.21l.07-.32-.19-.14-.25-.14-.25-.14-.23-.18-.32,0-.3-.19,0-.25.25-.11-.26-.18.05-.22-.18-.23-.28-.15-.29-.28-.21-.11-.28,0v-.24l-.06-.16-.23,0-.18-.1-.16-.06-.2.15h-.2l-.18.14.08-.24-.08-.23.08-.22-.06-.12-.2,0-.24.13-.22.18-.07.24-.05.2,0,.21-.14-.18,0-.21,0-.2.11-.19.12-.12.25-.1-.21,0-.24,0-.18.1-.22.16L309,291l-.13.19-.08.28Zm-.44-1.75.13.13.19.12.09-.24,0-.19-.15,0-.22.22m.44-.89-.07.15.06.23.24,0,.09.14,0,.2-.11.18-.05.24.25.16.25.07.23.06.26,0,.19-.14.19.14.27-.06.1-.19,0-.19-.22-.13-.21,0-.22-.08-.29.08-.25-.1-.15-.16.09-.07-.1-.12,0-.14-.22-.05-.11-.16-.2-.1Zm1.32-1.83,0,.23.1.17.24,0,.19,0,.25,0,.27,0-.18.12-.27.05-.13.09-.18-.1-.14.23.13.1,0,.2,0,.18-.16,0-.23.23.19.15h-.28l-.05.19.1.09-.16,0-.2.1-.05.19.21.08.32.09.17-.06.16.06.15-.07.06.16.27-.1.18-.19-.18-.2.2-.15,0-.16.25,0,.1-.23v-.23l.1-.23.25-.1.12-.23.09-.18.16-.18.15-.23V287l.1-.14.07-.12,0-.1-.14,0-.13-.1-.2,0-.18,0h-.18l-.14,0-.15,0-.27.05-.15.13-.19.09-.15.07,0,.09-.18,0-.17.16Zm-1.83.55,0,.09.11.14-.16.09,0,.13.17.13.13.05v.2l.16,0,.19,0,.15,0,.1-.12v-.12l-.15-.22-.11.18-.12.16-.1-.06,0-.16.09-.17-.06-.18-.14,0-.07-.12-.13-.05-.1.05Zm-.59,1.13,0,.21-.06.15,0,.22.24,0,0,.29.29.09.17-.21.07-.19.08-.17-.12-.18-.19-.08-.14.09-.12.18,0-.2-.05-.16-.12,0Zm-2-1-.06.21.13.06.09.13L306,288l.18-.08.06.16.27-.07.09-.16.19,0,0-.16-.19.05-.13-.11h-.17l-.21,0-.24.06Zm.22.8.11.14.06.14.2-.05v.19H306V289l.12.12.16,0,.2-.05h.2l.23.13.18,0,.14-.18.15-.15-.11-.13-.09-.21.08-.22-.15.05-.19.09.06.11-.11.09,0,.18-.2-.15.05-.17v-.14l-.08-.19-.12-.1-.19.09-.24.12-.21.12Zm-2,.57v.28l-.15.29.26,0,.18.07.29-.11.3-.22.29,0h.53l-.06-.24,0-.24-.2-.13-.09-.22-.25,0-.24-.08-.17.26-.23.17-.27.11-.23.1Zm24,42.36.13-.15.27-.23.12-.16.27-.24.09-.15,0-.13.08-.16L329,330l0-.14.09-.19.12-.2v-.12l0-.15v-.13l.08-.17.08-.22.24-.22.21-.22.23-.28.14-.22.17-.24.12-.14.24-.23.13-.2.2-.24.13-.2.13-.23.13-.23.07-.25v-.16l-.05-.16,0-.17-.08-.15-.25.08-.21.16-.22.09-.13-.05-.21,0-.14,0-.14-.05h-.43l-.22,0-.23.11-.23.18-.23.11h-.23l-.23.1-.23,0-.23.07-.24.19-.28.18.08-.22-.11-.11-.07-.13L327,326l-.08-.1-.33.07-.24,0-.28,0-.28.11-.17.12-.17.35-.12,0,.08-.19.09-.29-.29,0-.25.12-.25.05-.21.16v.23l-.09.28-.12-.22-.3.19,0-.23.08-.22.21-.2.17-.19.21-.26,0-.32-.29.07-.09-.24-.17-.22v-.24l-.26-.13-.17-.06-.26-.06-.22-.08-.26,0h-.65l-.26,0-.26.06-.26.1-.26.07-.3,0-.13-.1h0l-.18-.07-.27-.08-.21.07,0-.18-.1-.16-.27-.1-.27-.09-.31-.09-.39.14.07-.27-.1-.21-.31,0-.22,0-.18.07-.19-.16-.18-.13.44-.14-.31.05-.36.05-.3,0-.26.23-.27.11h-.31l-.23-.05-.09-.1-.22,0-.23.06-.31,0-.32.06-.09-.14-.05-.19-.22-.09-.27,0h-.23l-.1-.3-.22.13.09.19-.22.13-.22.08-.23.09v.27l.19.25v.26l-.32.09-.05-.18-.14-.15.14-.23.13-.15-.09-.19-.14-.23.27-.08.13-.2-.09-.11-.18,0-.18.13-.13.16-.23.08-.18.12-.27.12-.36,0-.14.15-.22,0-.22.07-.14.15-.05.23v.23l-.23,0-.13.19-.28.18v.33l-.23-.23-.17-.15-.18-.16-.23-.15-.23-.05-.22-.09h-.27l-.14.14-.27.06-.28.05-.32,0-.17-.12-.23,0-.08-.2-.23-.13-.22-.17-.13-.21-.13-.2-.08-.2.1-.18v-.23l.1-.26v-.51l.14-.18v-.36l-.08-.09-.22-.1h0l-.2-.22-.22-.06L306,321h-.26l-.26-.08-.26.05H305l-.29-.12-.32.07-.2-.16-.21-.12.27-.11.15-.3,0-.25.07-.4.12.22.14-.22.07-.28.06-.24.06-.24.11-.24.23-.17,0-.21-.12-.1-.25,0-.21-.08h-.26l-.25,0h-.51l-.17.06-.08.28-.06.2-.1.14,0,.21-.18,0-.17.09,0,.13-.3,0v-.08l-.29-.11-.3.06-.29,0h-.31l-.16,0-.14-.2-.24-.15-.23-.14-.14-.25-.1-.24-.08-.28-.14-.21-.09-.19-.05-.23.1-.14-.21-.24,0-.27.12-.19,0-.25,0-.25.05-.25.12-.23.12-.23.15-.18v-.23l.05-.25,0-.28.09-.24.18-.13.26-.11.26-.11.23,0,.17-.09.18-.09-.07-.25.16,0,0,.21.25-.08h.2l.27,0,.22.14.22.09.21-.08.2.22v.18l.23.09h.28l.17-.06.15.07.1.16.09-.08-.21-.21v-.09l.12-.07.06-.12-.2,0-.2,0-.15-.07h0l.14-.2.22.17.24-.09.2,0,.22.08.13-.11.06.19.24,0H306l.14.16.23.12.06.23.24,0,.2-.11h.24l.19.2.18.32.11.06.06.28-.05.21v.18l.16,0-.1.25,0,.18.15.19.11.23.11.27.2.19.07.22.21,0,.13-.07.13-.25.06-.31v-.3l-.11-.32-.1-.32v-.17l-.16-.28-.06-.27-.1-.27,0-.27,0-.27.13-.26.13-.26.25-.21.24-.12.24-.16.16-.17.12-.18.23-.13.2,0,.19-.17.19-.18.27,0,.12-.13h-.23l.23-.17h.15l.08-.14v-.18h-.41l.19-.08.14-.05.12.05.11.18-.11-.18,0-.23-.07-.18-.18-.19v-.18l0-.23-.25-.19.21.05,0-.18,0-.27.07-.18.18-.1-.07.19v.18l-.08.23.18.09,0,.14H311L311,310l-.08.27.11,0,.08-.27.14-.23.11-.14-.18-.32-.07-.27.14.09.11.18.21-.18.14-.28.07-.26h0l-.14-.09.14-.19.21-.14.2-.1h.42l.2-.1.06-.19.11.14.17-.11v.1l.27-.11v-.05l-.21,0-.08-.23-.14-.08.1-.14,0-.14.09-.19.12-.19v-.1l.19-.1.22-.11.12-.24.11.09.22-.12.18-.1.19-.16,0-.18.29,0,.24-.12.27-.22v.19l.24-.08-.23.22-.14.1-.21.22-.07.23.09.23.21.11.18-.2.17-.22.1-.19.2,0,.24-.18.36-.19.3-.15,0-.19.2-.13.19-.22-.29-.13,0-.28-.11-.08-.07.26-.15.25,0,.23-.2,0-.2.13h-.26l-.31-.14-.23-.06-.16-.26-.07-.31,0-.24-.3.13-.27-.25.36,0,.17-.11.19-.17,0-.18-.14-.12-.25-.06-.26.07-.26.08-.23.16-.2.11-.23.16-.2.2-.14.23-.14.2-.14.19-.25.11.15-.2.11-.19.14-.19.11-.19.14-.24.19-.2.22-.25.25,0,0-.23.13-.2.25-.12.2,0,.23,0,.26-.08.2,0h0l.2,0,.23,0,.18.06.25-.09.32-.06.13-.21.11-.2.09-.21.25-.2.32-.11.17-.23.12-.17-.2-.33v-.24l-.28-.21-.23.05-.08-.21-.32,0,.21-.23-.19-.1-.29,0-.14-.17-.34,0-.1-.22-.28-.09-.16-.15,0-.27.09-.19-.17-.11,0-.18-.18-.16-.19-.24-.17-.25-.21-.24-.18-.24-.12-.17-.11.2-.09.14.12.17-.09.23-.19.16-.07.18-.27.17-.23-.3-.17,0-.16-.21v-.44l-.09-.22,0-.23-.21,0h-.2l-.21-.12.06-.18-.2-.12-.18-.18-.2-.13-.3.1h-.17l-.23-.1-.26,0-.17.12v.22l.14.14-.07.22-.1.22.13.13,0,.27V298l-.15.22-.18,0,0,.18.16.18.17.1.08.31,0,.23.07.31v.37l-.16.22-.25.22-.24.17-.25.13.09.22.07.24v.59l.12.28-.21.26-.29.17v.19l-.22-.2-.09-.24-.16-.19-.12-.24-.19-.25.08-.27,0-.22-.05-.23h0l.12-.4-.24-.16-.31,0-.31,0-.27-.27-.24-.12-.19-.12-.13-.26-.24-.22-.27-.14-.25-.23-.24,0-.19.05,0-.17,0-.24.06-.22,0-.33-.17-.09h-.19l0-.23.09-.26.11-.3.13-.19.13-.2.21-.23.18-.18.19,0,.08-.25.24,0,.27,0,.05-.26.23-.27.35.07.23-.23.23-.23.05-.25.29-.32-.13-.19H309l.07.14.28.12.26-.19.3-.19.08-.29-.24-.15,0-.25.24-.11,0-.31-.27-.09v-.17l-.23-.11-.24,0-.05.25,0,.29-.06.29-.25.14,0,.21-.18.06-.12-.32.09-.25.05-.2-.12-.28-.28.29-.07-.27-.07-.23-.16-.17.26-.16,0-.26-.08-.19-.07-.23,0-.26.17-.13,0-.18.17,0,.18,0,.15-.18.16-.18.11-.1-.12-.12-.26-.13h-.32l-.13.18,0,.2-.05.24-.08.2-.09.23-.18.08-.17.23-.19.24.08.33.23.28-.2.17v.26l-.27.2h-.07l-.15.22-.13-.21.09-.26v0l.32-.1,0-.32-.17-.32-.22.2-.25.1.2.29-.19.12-.13.27-.26,0-.29-.2-.17-.21-.2-.26-.05-.33-.26,0-.27,0-.22.09.13.2-.18.17-.14-.17-.09-.19-.28,0-.28-.06-.14-.18-.19-.11.15-.12.2,0,.05-.23-.12-.23-.21-.15-.12-.22-.1-.23v-.25l-.22-.16-.24.12-.09-.11.22-.22-.34.12,0-.15.14-.23,0-.32-.29.15-.18,0,.14-.19-.26-.05-.28-.06h-.21V289l-.14-.09h-.22l-.19.12,0-.24.06-.22,0-.22-.1-.2,0-.16,0-.19-.08-.15-.11-.11,0-.2-.08-.16.05-.25-.06-.17-.05-.15.15-.21-.06-.23.11-.11.06-.22-.27-.08,0-.17-.23-.12-.07-.14-.22-.08-.24,0-.2,0-.09-.16,0-.15-.26,0-.18.19-.15.23-.26.15-.16.21-.2.19h-.18v-.25l.21-.08v-.13l-.13-.13-.12-.14-.2-.1-.09.12,0,.16h-.16l-.17.11-.09.26.05.2-.08.2.14.08.08.11h0l-.21,0-.2.17-.25.06-.06-.21-.21,0,.11-.21-.12-.08-.16,0-.25,0-.32,0-.21.22-.24.16-.24.21-.19.18V287l.21.07-.27.23-.16,0-.19.16.09.08,0,.28-.21.26.16,0,0,.15.06.1-.27.13-.28.11-.18-.06-.21,0-.18-.12h-.25l-.05-.18-.13-.14-.2,0-.12-.16-.2-.13-.11.1.16.16.16.11.08.15.13.07.09.16.14.14.1.14.21,0,.14.1.19.13h.22l.23.08.2.1h.41l0-.19.17,0,.16.08h.22l.25-.09.2,0,.22.09.05.14h-.19l-.14-.12-.28.14-.26,0-.05.14h-.18l.1.17.21.05.2,0,.06.16.27-.05.26-.2v.2l.06.15-.05.2-.06.28,0,.26.1.18.11.18v.25l.06.18H297l-.2.2v.24l-.08.28-.05.24v.23l-.16.24-.07.28-.16.25-.16.3.26-.25.2-.27.2-.19,0-.24.07.09.2-.13-.12.21h0l-.14.11-.17.23-.17.16h.18l.17-.08-.08.19-.06.2-.07-.21-.21,0-.17.23.11.06-.16.16-.09.17,0,.17v.2l-.09.25.22-.23.14-.33.1-.24v.16l.08.09-.13.12-.11.23-.05.21v.2l.18.06-.24.14,0,.15h-.2l-.11.29,0,.21-.1.36.07.25-.13.26,0,.22-.11.14.05.29.1.22.09.25,0,.27,0,.25.05.23h.22l-.16.22,0,.19-.05.26-.09,0,0,.26-.22.18,0-.1h-.15l.23-.11-.07-.23-.16-.13-.12-.28-.1.1,0,.15-.07.24-.09.27-.08.17-.09.17.15.22-.19-.15-.11.16-.09.2-.17.16-.15.23-.17.21-.21.23-.23.22-.12.24,0,.21-.09.27-.16.21-.21.18-.06.11,0,.2,0,.2-.09.16-.08.21v.24l.05.21-.11.14.13.15L293,304l.08.12-.09,0,0,.25-.06-.21-.08.21v.22l.1.07-.1.2-.09.1.08.27v.28l0,.35-.11.23h0l.2.25.15.21.13.19.11.08,0,.18.11.07.1.27v.26l0,.28v.31l0,.25,0,.21-.05.12.07.2-.08.2.08.1-.07.3.15.19.11.31.07.24.07.23-.07.2-.2,0-.2-.16.13.27v.2l.1.15.12.21.16.09.08.24.16.23,0,.29-.07.25-.15.11.23.26.12.25.12.29.16.26.05.4.31-.13-.09-.27-.1-.33-.17-.08,0-.26.09,0-.09-.24,0-.16-.07-.31v-.28l-.12-.35-.06-.31-.11-.25,0-.28-.06-.28-.09-.3L294,310l-.11-.21,0-.22.1-.18,0-.24.05-.23.09-.14.16.24.14,0,.08.19.12.16-.07.21v.3l0,.18.06.27v.3l.12.35.11.35.22.16-.07.25.17.32.06.21.1.05,0,.22-.11.13,0,.12.14.21.25.25.06.35.14.25.13.24.12.32.11.23.13.28.11.22v.36l.12.19,0,.16-.18.1,0,.15-.17.06.1.31.14.3h0l.25.23.19.25.12.26.29.24.26.13.12,0,.17.23.25.3.22.16.23.16.22.2.24.12.23.19.22.19.28.13.29.16.27.16.3-.05.27-.05.25.06.2.1.21.13.19.17.11.14.2.25.2.21.15.19.25.18.25.12.26.06.25.16.12.14.22,0,.25.17.22,0,.31.06.09-.11.16.23-.17,0,.16.22.17.18.21.23.21.18.22.18v.19l-.05.19.08.2.18.06.08.08.19-.12.13.16.3.19.18.17-.05.22.27.06.13.12.14-.05.27.06.27.1.13.15.27,0,0,.26.23,0,.28-.09-.23-.16,0-.15.23-.06.18-.1.14-.18H309l.22.12.14.2h.18l-.14.15.13.26.23.19.18.19,0,.17,0,.29v.21l0,.21-.1.21.18.14-.18.17-.14.24-.32,0-.19.2.06.17-.24,0,.1.17-.28.09-.37.11,0,.24v0l-.23.11v.2l-.23.05.09.26v.19l-.09.05.18.08.23.2.05-.19.22,0-.08.12-.09.18-.19.05-.27.1-.27.13v.15l.09.18.19.19-.18.11.18.1.28.1.18.13.18.15.1.2.27.13.19.17.09.17.1.16.09.16.27.22.1.16.18.16.09.1.18.1.09.15.18.2,0,.14.23.15.17.09.18.09.36.11.26,0,.27.11.35.08.17,0,.26.07.27.06.17.1.17,0,.26.09v.13l0,.13.08.16-.05.11v.12l0,.11-.06.11,0,.11-.13.11v.2l-.05.1,0,.1v.08l-.13.06.08.1-.18.13v.08l-.13.09-.05.08-.13.09.08,0,0,.1-.16,0-.05.07,0,.08,0,.06v0l.07,0-.17.08,0,.06-.12,0-.05.05-.12.06-.16,0-.08.05-.08,0h-.11v0H312l-.08,0,.11,0v0l0,0,0,0-.19,0v0h.36v0h-.29l.26,0,.37,0h.34l.3,0,.28,0,.26,0,.31,0,.25,0,.34,0h.18l.19,0,.13,0,0,0h0l.12,0,.29,0-.26,0,.22,0h.11l.2,0,.05,0h0l-.31.05-.19,0,0,0,0,0,.15,0,.19,0,.2,0,.33,0,.3-.05.06,0h-.05l.14,0,.09,0h-.11l.07,0h.08l.32-.05.32-.06.21-.05.29-.06.29-.07.22-.05.27-.07.11-.05.22-.08.19-.07,0,0-.17,0h-.07l.16-.08h-.11l-.33,0,0,0,.11-.05H319l.29-.07h.12l.23,0,.26-.07.28-.07.22-.06.24-.09.21-.08.08-.05.25-.11.24-.11.12-.09.22-.1.25-.11.26-.12.2-.12.2-.12.13-.1.21-.13.23-.15.23-.11.13-.07.13-.12.09-.1,0-.08.07-.13.06-.1.22-.15.24-.15.26-.17.23-.16.24-.12.3-.17.12,0,.24-.18.22-.09,0,0,.31-.14.2-.07.22-.1.23-.11.21-.1.05-.1.24-.16.24-.16.06-.12M307,290.36v.16l0,.18.16.06.06.25,0,.27.26-.1h.26l.14-.26,0-.28-.17-.15.24-.17v-.25l-.19.05-.17-.1-.19,0-.1.13,0,.26-.21-.09Zm-2.59-.57.08.19-.17.11,0,.2.2.17.21.11.1.22h-.28l-.21-.13-.2-.09-.16.29.1.21.21.13-.11.34.25.09.3.1h.33l.27,0,.27-.07.06.22.15.21.25,0,.26-.07v-.21l.22,0,.13-.21-.23-.18-.17-.21-.06-.24.18-.24.05-.28.06-.2.24-.16.17-.13,0-.17-.22-.08-.25.17-.22.18-.12-.24-.21,0-.07-.17-.29.05.14-.26-.15-.09-.2.05-.22,0-.21,0-.1.11-.2,0Zm-8.79,4.93-.21.25v.2l-.15.25-.07.25V296l.12-.27v-.2l.15-.1.13-.27.24-.14-.11-.13-.1-.18Zm-.36,2.38-.05.33.06.24.06.24-.1.1.08.19,0,.19.11.1-.08.11.1.26.09.19.17,0v-.29l-.05-.33v-.29l.05-.32-.11-.22-.15-.25-.07-.26Zm24.15-7.2-.09-.09,0-.2-.23-.16.05-.15.16.09.2.13.17,0,.11-.16-.2-.18-.18-.15-.26-.06h-.25l-.23,0,.21,0,.23,0-.12-.14-.23-.15-.16.05v-.14l0-.11.1-.13-.16-.12-.18.05.09-.28-.15-.17-.1.11-.18-.23-.22-.15-.26-.11-.16.08-.16-.12,0-.16.21-.09-.13-.12-.27-.1-.21,0-.19-.18-.21-.1-.07-.15-.16-.14L316,286l-.15-.2-.08-.17-.17-.28h-.23l-.19.12.08.17-.11,0,.06.13,0,.15-.06.16-.13-.19,0-.15,0-.08-.14-.07-.07.1.12.09-.06.09-.16-.12-.23.18v-.12l.15-.09.11-.17,0-.16h-.19l-.15.05-.15-.05h-.23l-.19.12-.24.11-.09.17-.18.2,0,.2.05.18-.22.05.06.21-.3-.07-.3.18-.16.18.1.13v.14h-.16l-.08.13-.12.19-.05.21.25,0,.08.14-.07.26-.29.12-.17.13-.21.09-.06.19h0l.15.12.15,0,0,.16.21.09-.19.06-.13.12.12.09.2.09-.08.11.14.1.27.08.15-.12.24-.05.23,0,.26.12.24,0,.05.16.17.14.22.19.08.23.19.16.1.19.05.28.15.18,0,.25.13.1.21-.06,0-.18.21.24.23,0,.16.21-.33-.06-.24.05,0,.29.06.29.28.12.24-.15.07-.27.21.25.11.37-.29.09-.06.24,0,.3.09.29.15.23.09.24.32.19.21.25.11.29.21.12.1.2.37.31.12.14.26.24.22.21.37.21.33-.08h.26l.23.14.39.05.11-.16,0-.28-.11-.25-.07-.26,0-.29-.27-.27.1-.25,0-.3-.09-.26-.12-.24-.3-.25.21-.05-.06-.22.17-.19.27-.15.13-.27,0-.24,0-.23-.06-.22-.07-.22,0-.26,0-.19.2-.13.08-.23.12-.19.07-.23,0-.2v-.47l-.06-.19-.18.1-.26,0-.06.22Zm2.09,1.56.15-.07.05-.16.16,0,0,.23,0,.28.2-.19.29.12.05.26.26-.24.24-.05.24-.12v-.28l.08-.16,0-.26,0-.28-.13-.29-.25-.19-.22.06-.27-.19-.06.15h-.18l.08.19,0,.16-.15,0-.09.16.05.15-.18,0,.2.19-.08.21-.25-.21-.23,0-.14.06.1.1-.09.08.12.14,0,.2Zm-14.44-12-.25-.06-.17,0-.1.11-.12.13h-.15l-.05.12V280l.09.05.15,0,.08,0h.25l0-.15.35,0,.09-.13Zm5-.08-.21.07h-.24l-.21,0v.16l.11.1.16.08.12,0,.08-.13.11-.15Zm.65.76,0-.14-.17-.08,0-.14-.21-.07-.15-.07h-.17l0,.14-.09.12.07.11.15.07,0,.11-.07.07.08.09.05.09.24-.08.09-.12.19-.11Zm6.71.33.05-.15,0-.14-.11-.16-.16-.17-.16-.05,0,.17-.1.1-.17.08-.21.06h-.23l-.25,0h-.5l-.28,0H317l-.28,0-.28,0-.23-.08L316,280l-.24,0-.19.1.08.1.26.05.19,0,.26.09.19.12.31.07.23,0h.16l.27.09.13-.05h.31l.28,0,.09-.09.21.07h.28l.12-.06.21.07.21,0Zm9.53,13.66.2.1.17,0,.09-.21,0-.23,0-.29.08-.23-.15-.18-.15-.19-.22-.15-.19-.11-.06-.26-.23-.13-.18,0-.12.11-.12.12,0,.22.12.23.13,0,.06.15-.07.12-.09.14.1.17.13,0,0,.2h.2l.07-.11.13.29.16.24-.08.13ZM282,301.52l-.06.12h-.05l-.06.22-.05.09v.16l.05,0,.05,0,0,.08H282v-.14l0-.14v-.4Zm17.82-25-.18.07-.1.05-.11.07,0,.05,0,0,.05,0-.06.06,0,.06-.08.09.07,0,.05,0h.39l0,0v0l0,0,.13,0h.11l0,0,.22-.08.2-.06h.08l.23-.08.17-.09,0-.09.21-.12v.05l.1,0,.14-.08v-.06h.1l.1,0,.18-.09.23-.07h.08l-.15.1-.08.1-.1.1-.07.1,0,.09,0,.08-.08.1-.07.09v.13l-.09.1,0,.06-.08.1-.2.13-.22.12-.19.12-.13,0,0,.09-.25.12-.13.1-.16.09,0,0,.06,0-.07.07-.19.09-.15.09-.07.07-.16,0,0-.09-.13,0-.13.1-.12.14,0,.07-.16.09-.18.18.15,0,.15-.1.12.06.07.08v.12l.06.1.06.1-.09.15-.11.13-.17.1-.06.13-.16-.08h-.14l-.17,0v.13l0,.1.05.09-.06.11h.17l.13,0-.08.18-.12.05v-.1h0l-.17,0-.22,0-.11,0,.06-.14v-.12l-.09-.05-.06-.1,0-.14-.1-.06,0-.11,0-.12,0-.12.12-.11-.15,0-.09-.05.06-.11-.13,0-.13,0h-.19l-.16,0-.21.05-.17,0-.24.05-.22,0-.27.09-.18,0-.15,0-.14.06,0,.1,0,.09.1.07h.17v.09l-.15.15.17,0h.16l0,.08-.08.13-.12.1,0,.06.23-.1.21,0,.1,0,0,.09-.16.08v.07l.23-.05.12-.08.17,0,.09.08.19-.12v-.08l.19,0,.1.06.08.09.13,0h.14l0,.14-.15.1.06.09-.05.14-.24,0,.09.1,0,.1,0,.13-.14.16-.19.13-.2.1.18,0,0,.14.06.12.07.11.08.11,0,.13.08.11v.14l.06.11-.09.21-.18.16.15.08.19-.1.26-.11.26-.08.17-.06.06-.14.2,0-.12.19.06.13,0,.05h0l0,0,.22,0,.2-.13.11.12-.21.05-.22.09-.09.14.05.09-.13.17-.21.07L298,284l-.2.21-.12.19h.2l.15.06.24-.06,0,.17.15,0,.11.09.23-.21.23-.18.13-.24,0-.2.23-.11.2-.15.21-.18.18-.2.21-.14.21-.14h0l.05,0,.18-.15.15-.17.2-.17.09-.19.14-.17.13-.16.15-.17h-.27l-.24,0-.07-.07,0-.11.17,0,.17-.12h.16l-.08.11.09,0,.18-.14-.1-.08-.05-.09.19-.15.2-.19.14-.21.17-.18.23-.11.13.09h.21l.2-.07.17-.13.2-.14.1-.16.13-.1.1-.11.13,0,.2-.05.11-.08.17,0,.21,0,.22-.08.2-.14.29-.08.21-.09.21-.09.25-.1-.17,0,.19-.1V279l-.15,0-.19,0,.25-.1.26-.14.17,0,.1-.07,0-.08.19,0,.24,0-.05-.11-.06-.1.05-.11.18,0,.24,0,.22.08,0,.12.06.13.29.06.28,0,.35,0,.27-.06,0-.09-.13-.07.19-.06.32,0h.26l0,.1.21,0h.22l.16,0,.17-.06.17.13-.05.1h.19l.06-.05-.2-.06-.06-.1h.16l.13,0,.17,0,.09-.07-.12-.06.2-.06.2,0h.17l-.1.11h0l-.16.05-.19.12-.18.1-.19.14-.15.1,0,.14.07.12.17.08.17,0h.38l0-.07h.18l-.13.15.19,0h.21l-.22.1.24.1.19-.1.2-.11,0-.15.25,0,0-.1h.37l-.07.08.32,0,.19,0,.18-.07h.53l.2-.05.19-.06.06-.08v-.12l.27,0,.25,0,.27,0,.25.05.06-.15.11-.11-.18-.11v-.12l.23,0,.07.13.11.11.15,0,0,.1h.17l-.12-.15h.13l.07.1h.16l0-.11-.16-.13,0-.08.21.12.21.13-.13.1-.17.06-.1.12.06.13.09,0-.07-.1.08-.08.16,0,.18,0,.23-.06v-.11l0-.11.19,0,.16-.08.12-.12-.25-.13.22,0,.14-.08.1-.12h.26l.2,0,.27,0,.24,0,.08.15-.33-.06h-.21l-.24,0-.11.06-.18,0,.05.14-.14.09-.17.09-.14.09-.14.1v.13l-.21,0h0l-.16,0-.1.07.14.15-.12,0,0,.1.19,0,.2-.05.21,0,.18-.08.2,0,.28,0,.16-.06.05-.1.2,0,.1-.05-.08-.1.08-.12,0-.1.24,0,.05.11v.1l.11.12.06.12.12.1,0,.14.15.13.1.19,0,.16h.19l0-.08-.05-.13.08-.08,0-.09.17,0,.13.05.12,0,.07.09-.21.07.19.07.25.06.11.12.17.11h.17l0,.12-.19.06.21.08.22.08.2.11.2.08.23.12.18.11.25,0,.2.09.12.14-.09.07,0,.13-.25-.07-.16-.14-.14.07,0,.08.12.15,0,.16.1-.13.26,0,.26,0V281h.22l.21.07v.11l.07.14.22.09.21.15.23.12.14-.07.18-.07.08.18v.12l0,.14,0,.12.2.08.12-.11-.07-.11h.23l.12.2-.11.14,0,.16-.24,0-.2,0-.23,0-.13.13-.06.11-.21.07.11-.12h0v-.15l.05-.14,0-.14-.05-.14v-.15l-.15-.17-.22-.16-.21-.09h-.23l-.16,0-.07.13,0,.13-.08.13-.08.13,0,.15v.17l.05.19h-.16l0,.12.13.11,0,.16-.11.15v-.16l-.23-.16-.08.12-.07.13,0,.16.33.14h-.2l.21.15-.31-.05.12.11.18.1-.1.1.15.15.24.14.11.19h0v.16h0l.25.16.09.16.18.05,0-.08.18.18-.17,0,.13.12-.26-.1.18.16.12.16.13,0,.09.22.21.17-.17-.21,0-.16,0-.18.26.24.21.11.21.2.21.14.2.12.21.14.25.16.15.2.28.22.2.18.19.19-.14.05.2.16.14.16v.19l.18.22.13.19.13.22.18,0,.14.16.2.07.21.09H327l.15.15.16.05v-.17l.13.19.19.12.14,0,.15-.1.07-.16-.09-.23-.14-.18-.17-.25v-.1l-.15-.14.13,0,.28.08.24,0h0l.26.06.24.05.2,0,.15.13.2,0,.15.08v-.28l-.15-.06-.2-.2v-.27l-.27-.21-.27-.16-.19-.12-.24-.09-.15-.1-.17-.22-.13-.19-.07,0-.13-.16-.12-.09H327l-.15.07-.15.07-.2-.06-.25-.12-.24-.1-.13-.1-.25-.2-.18-.18-.13-.15-.15-.18-.17-.1-.18-.16-.11.08-.18-.12-.12,0-.1-.12-.18-.1,0-.11,0-.11-.06-.11.13-.1.24,0,.11.13.27.15.23.19.28.2.23.2.25.15.24,0h.23l.25.14.16.05.1-.11.1-.05.05-.16-.08-.19-.13-.19-.12-.2-.13-.19-.07-.22.15-.09-.09-.14.17,0v.17l.21.2.14.11.06.21,0,.15.08.19.08.18.15.17.19.06h.19V285l.23.08.23.07.14.15v.11h-.15l-.09.06.07.17.24.16.16.13.27.11.22.07.24.17.33.35.09.15v.13h0l-.2,0,.05.2.09.22.15.23,0,.21.11.25,0,.09-.08.09-.06-.13h-.16l.11.15,0,.17.06.14.11.18,0,.13-.14-.12-.14.14-.11-.06-.13.07-.21-.2-.22-.22-.06-.19-.15-.07,0,.12-.15-.08-.19-.15-.15-.08,0,.16.14.16,0,.18.1.16.15.12.22.12.2.09.13,0,.22.13h.16l.07.12h.12l.1.16.14.11-.1.07,0,.15.09.14,0,.22,0,.18.18.12.06-.08.11.07.09.18-.1.05-.22-.15,0,.1.17.16.13.16.12.18.11.2,0,.19.06.24,0,.19.13.14.16.16,0,.15.08.75L331,293l-.06.14.24.09.25.16-.06.15,0,.19-.17,0,0,.19V294l0,.17.21.16.12,0,.05-.13.17-.05.11-.14h.08l.18,0,.08.1.13,0,.15,0,.18.08.22.22.2.23.15.17.19.25,0,0,0,.14,0,.17-.1.12-.13.2L333,296l-.15.11-.14.17-.08.23-.1.17-.2.1.1.25-.07.19,0,.16.27.12.13.19.13.11.19.15.12.19.14.24.18.26.05.23.14.22.15.06L334,299l.14.23.16.2.1.22.07-.21.12-.1v-.19l.07-.12.16-.05.11.05.2.11.13-.08,0-.32,0-.21.07-.21.08-.17.08-.17.07-.18-.08-.26-.1-.34v0l-.86-1.88h0v-.41l-.07-.29,0-.23-.22-.17-.19-.15,0-.25-.06-.2.11-.1.07-.16.14-.08v-.2l-.1-.22-.06-.25,0-.21-.12-.18,0-.16.05-.12.08,0,.05-.14.19.13.17.06.17,0,.13.08v-.14l.16,0H335l.1-.06v-.2l.13,0,.09-.05,0-.07.15,0,.06-.15.11.08.15.05.15.1.08.15.15.17.08.08v-.1h0l-.09-.12-.09-.18-.14-.12-.06-.2-.15-.12-.08.07-.18-.2-.12-.16.05-.08,0-.12.12.06,0-.07-.12-.15-.14,0-.08.07-.08.08-.09.1-.05.1-.13-.17v.24l-.09.1-.1.07h-.09l-.16-.1-.16-.05-.1.07-.11,0-.13,0-.13-.07-.13-.15h-.1l-.13-.12v-.11l-.09-.21,0-.11.09.11.14.08h.1l-.07-.14-.13-.12.14-.09.16.09h.1l.12.09.1-.09h.09l0-.14.15-.1.15-.05.08-.1.11-.06.08-.07.15.13.21.19.18.14.08-.06.13,0,.11,0,.16,0H336V290l-.06-.25H336v-.16l.08-.05-.2-.16,0-.13,0,.07-.1-.06,0,.08-.06,0-.1,0h-.23l-.21-.18.12,0,0-.15-.1-.11h-.07l0-.14-.11-.14v-.12l-.07-.15v-.14l.09,0-.07-.16.15.2.09.06h0l.21.19-.1-.27.1.11.19.13h.07l.05.1-.06,0,.12.11,0-.1v-.09l.12.12.05-.06.13.18,0-.15-.05-.15.1.11-.06-.17.06-.1v-.11l-.16-.29-.15-.16,0-.15v-.16h.07l0-.11-.11-.16-.06-.13-.17-.22-.17-.21,0-.14-.05-.09-.18-.23.06,0,.16.17.07,0,.13.13.2.16.13.09.18.21.21.22.18.2.17.18.16.18.19.24.14.19.14.26.11.21,0,0,.11.14v.09l-.1-.12.06.19.1.21.14.26.13.23.09.19v.12l.07.19v.2l0,.17,0,.16.07.22-.1-.05,0,.2v.3l-.11-.09v.33l.06.21.07.25.15.32h0l.42.51h0l.08.2.06.19v.14l-.08.06-.08.12,0,.22,0,.17-.07.08h-.07l-.15-.16L338,294l-.07.11,0,.17,0,.22v.21l-.06.11-.1.11-.13-.09V295l-.06.08-.14-.12-.06-.19-.09-.24-.12-.22-.14-.12-.06.05-.2-.14,0-.16-.13-.22.06.3-.18-.09,0,.13v.18l.07.21v.18l-.1.18,0,.19-.1.17.05.22v.18l-.08.05-.07.14-.05.18v.16l0,.15v.22l0,.23L336,297h0v.9l.07.18v.3l0,.19-.16.08,0,.16-.1.2,0,.16-.2.07-.14-.06-.05.18.11.27.1.22.08.24.07.25v.31l-.06.24,0,.25.05.28v.26l.09.14.07.25v.2l.21.35.14.06.09.32,0,.29v.3l-.06.29,0,.27-.09.32-.15.26,0,.28.07.27v.22l-.06.26v.19l.06.26.05.24.05.33,0,.31v.54l.06.38v.26l0,.21.07.24.06.25h.17l.18.06h0l.07.21,0,.25.17.11.12.16.08.22.05.24,0,.27,0,.27.09.29,0,.29,0,.26-.09.24.15,0,.13.14.09.22,0,.24.06.25.14,0,.14,0,.11-.18.09.26.13-.07.12.07.1.09.14,0,.14,0,.12.05.06.18.05.15.07.12.16,0,.14-.07.14-.07.13,0,.17-.1.15,0H340l.12-.05.15,0,.11-.11.09-.11.1-.32.11-.25.07-.28.11-.24.1-.25.08-.19.09-.18.14-.21.08-.15.11-.12.06-.26.06-.23v0l.26-1v-.26l.07-.29.05-.22.06-.19.06-.26.07-.22.06-.12.07,0,.06.17.05.2.06-.1,0-.19,0-.22,0-.23,0-.19,0-.2,0-.16,0,.17,0-.13,0,.07,0,0v1l0-.06v.68l0,.32v.13c.09-.93.13-1.88.13-2.83a31.61,31.61,0,0,0-31.62-31.61,31.17,31.17,0,0,0-11.46,2.14m30.47,17.29.09-.08-.06-.26.16-.14-.15-.18,0-.19.15-.12,0-.24v0l-.18-.85v0l-.06-.22-.16-.19-.16,0-.12.08h0l-.88,0h0l-.2-.06-.23-.12-.18,0-.13.09-.06.13-.07-.18L328,291l-.16-.2-.12-.15-.16-.09-.08.17-.06.13,0,.18-.15-.2-.07-.27-.13,0-.05.2-.09.18.16.2.1.18.13.13-.12,0,0,.12h.16l.07-.13.17.25.15.11v-.17l.17.15.07.25.06-.12.14.11-.12-.24.18,0,.21.28.18,0v-.43l.15.21.18,0,.05-.11.14.21.18.14,0,.16-.13.17.12.05.1.19.07-.14.21.17v.18l0,.22.12,0,0-.18.09-.09.16,0,0-.23.13.21-.06.12-.06.13.12.25.07.23Z" transform="translate(-224.83 -226.49)" style="fill:#f29087"/><path d="M342,301l0-.16.05,0,0,.12v-.38l.07.26v.25l0,.26h0l0-.1,0,0-.05-.09-.05,0Zm-40.51-9.72.23.16.29.13.06.22-.25,0-.18,0-.29.18.24.18.14-.12.27,0-.09.16-.26.15.46,0,.05-.26.21.23.19-.13.19-.1-.26-.11-.19-.2h.2l.22,0-.11-.18h-.32l-.26-.08-.25-.06-.29,0Zm-.37,3,.09.28.15.09.22,0,.08.1.14-.13H302l.21,0,.23-.19.25,0,.25.07v-.15l.24.12-.16-.18-.15-.08h-.22l-.14.08-.21.1-.16,0-.1-.16v-.15l-.22-.14,0,.14v.23l-.18-.06-.12.14-.18.05-.23-.15Zm.48,1.86.19.15.17-.12h.22l.23.11h.24l-.09-.15-.14-.06-.07-.18-.11-.06-.23.14-.19.06-.22.09Zm1.47,2.05.3,0,.09-.21.09-.22.21-.06,0-.3-.2.17-.16.13V298l-.14.15-.16.13Zm.5,1.92,0,.2,0,.28.11.18-.05.18.23.07-.05.27.19,0-.1.21-.09.21-.07.22.22,0,.18-.34-.07-.25,0-.35v-.28l0-.29v-.29l-.16-.09-.17-.06-.15.2Zm-.63-.06v.29l.17-.09.08.17-.12.11-.09.26.13.19.14.28-.06.18.05.2-.09.17.26,0v-.25l-.06-.16,0-.2.13-.2-.14-.09-.19,0,.06-.33.12-.1.06-.17-.14-.24-.28-.09Zm2,4.22.18,0,.27-.08.11.25.3-.08.3-.08.31-.19.18,0-.27.15,0,.18h.25l.12.24.25,0,.33-.09h.31v.14l.18,0-.06-.24.06-.22-.11-.15,0-.19-.28,0-.12-.2-.08-.29-.3-.05-.24-.18-.15.16-.26.1-.16.16-.17.11-.26,0-.21.15-.25.13-.22.14Zm1.31,1.43.31-.14-.13.21-.06.18-.11.31-.1.21v.24l0,.31.09.3.17,0,.18-.06.13-.17.11-.31v-.28l0-.24,0-.22.13-.22.09-.22.31-.1.16-.25.19,0,.15.11.18.12.08.19,0,.32-.22.25,0,.19.18-.17.21-.07.07.28.07.29.28-.12,0-.32.12-.27.09-.22-.06-.19.21.25.32.16.14-.18-.17-.33-.18-.29-.34-.12-.25-.07-.25,0-.25-.07-.19,0,.05.18-.32,0-.15-.07-.2,0-.39,0h-.09l-.15.16-.17.21-.16.21Zm1.58,1.78.26.17.24,0,.24,0,.25-.12.25-.08.28-.12.24-.12.18-.17-.27,0h-.27l-.14.13-.17-.07-.24,0-.15.18-.28.11-.24,0-.18.11Zm1.58-.7.2.06.27-.08h.23l.24.06.23,0,.27-.09,0-.28.07-.18-.23.09-.13.13-.27,0-.2,0-.27,0-.23.08-.15.22Zm28.31-18.15-.06,0-.06,0h0l.08.16-.15-.19-.15-.19-.13-.14.2.26.19.25.1.12.08.13v0h0l-.06,0h-.05l-.09-.06-.08-.06.08.13.07,0,.09.09.07,0h.09l.08.08,0,0,.09.09.06,0,.07.07.07.06.05.05.06.06h0l.1.15.05.08.06.07,0,0,0-.06,0-.06.11.17,0,0,.06.11-1-1.39Zm-3.61-1.45.11,0,.13,0,.08-.07v-.13l0-.16-.11-.21,0-.15-.15-.19-.14-.2-.15-.19-.15-.22,0-.15-.1-.18-.09-.15.07,0-.1-.18h.09l-.06-.11v-.09l-.09-.13,0-.1-.12-.18-.13-.17-.07-.14-.13-.17-.22-.21-.17-.18-.13-.08h-.06l-.11,0v0l0,.13v.09l0,0-.06.06v.09l0,.11v.14H332l0,.09.12.16,0,.12.16.17.09.15.14.13.12.16-.05,0-.17-.12,0,.06v.12l-.21-.19-.15-.2,0,.1.13.19v.14l-.15-.12.07.17.06.15.19.14.17.18.12.18.18.08.15.12.11.17.15.16.16.09.19.13.09.18.19.14.16.19Zm-2-2.56,0-.06h.09v-.1l-.15-.18-.08-.15-.06-.15-.25-.19-.23-.2v.06l-.06,0-.07-.12-.21-.2-.12-.15v.06l.12.15.16.22.23.24.13.2.18.2.18.17.14.18Zm-1.64-2.85.11,0,0-.07h.09l.11,0,.13.06.07,0,0,0,0-.06.05,0,.09,0v-.06l-.09-.12.15.14.18.13.18.12.12.08.1.1.15.08.12.06.12.07-.08-.1-.14-.15h0l-.08-.11-.11-.12-.26-.24-.25-.21-.19-.17-.11-.08-.1,0-.18-.11-.22-.14.09.08-.07,0-.14-.08.19.18-.07,0-.2-.13-.11-.11-.18-.16-.24-.17,0,.05v.05h0l.19.16.18.12.1,0h-.06l-.1,0-.21-.13h0l.16.16,0,.07-.11,0-.06,0,.08.11-.1-.05-.15-.15-.09-.1h-.1l-.24-.16-.2-.17-.06-.1-.17-.14-.14-.12v0l-.1,0h-.12v.06l0,.1.11.1.15.14.08.1.3.21.18.15.17.15h.07l.14.12.16.1.08.13.19.11.24.14.2.13Zm-2.8-2.55.14,0h0l.16.06-.19-.14-.19-.14h0l-.24-.15-.3-.16-.13,0-.14-.09-.16-.08v0l0,.06h-.06l-.21-.09-.19-.09.26.14,0,0,.23.14.09,0,0,.05.19.08.13.1.12.07.14.05.23.12ZM311.8,274.5l-.32,0H311l-.11,0-.25,0-.28,0-.16,0-.2.05-.12.05v0l0,.06-.06.05h.13l.07,0,0,0,.09-.05.09,0,.1,0,.18,0,.19,0,.13,0,.17,0,.13,0,.15,0h.57Zm14.3,9.05.11-.07.17,0,.18,0,0-.08-.13-.07-.06-.14-.18-.09-.15,0-.13,0,0,.1-.09.06.05.12.16.12.13.06Zm-.67-.86.09,0,0-.11.18,0-.05-.09-.11-.08-.15,0-.07.05-.13,0-.2,0-.06.08v.12l.08,0v-.08l.15,0,.06.11Z" transform="translate(-224.83 -226.49)" style="fill:#f29087"/></svg>